<?xml version="1.0" encoding="UTF-8"?>
<svg version="1.1" xmlns="http://www.w3.org/2000/svg" width="30" height="30">
<path d="M0 0 C2.16796875 -0.3125 2.16796875 -0.3125 5 0 C7.67578125 2.1875 7.67578125 2.1875 10.3125 5 C11.19550781 5.928125 12.07851562 6.85625 12.98828125 7.8125 C13.65214844 8.534375 14.31601563 9.25625 15 10 C19.77402854 6.00471647 19.77402854 6.00471647 24.1875 1.625 C26 0 26 0 30 0 C29.54261927 4.68191549 27.80889606 6.63104174 24.4375 9.8125 C23.61121094 10.60269531 22.78492187 11.39289062 21.93359375 12.20703125 C21.29550781 12.79871094 20.65742188 13.39039063 20 14 C20.91447846 15.08518111 21.83170407 16.16804738 22.75 17.25 C23.29398438 17.89195313 23.83796875 18.53390625 24.3984375 19.1953125 C26.0528611 21.12912214 26.0528611 21.12912214 28.375 23.125 C30 25 30 25 30.25 27.75 C30.1675 28.4925 30.085 29.235 30 30 C25.31808451 29.54261927 23.36895826 27.80889606 20.1875 24.4375 C19.39730469 23.61121094 18.60710938 22.78492187 17.79296875 21.93359375 C17.20128906 21.29550781 16.60960938 20.65742188 16 20 C11.62170683 21.84709243 9.12120954 24.93708858 6 28.41796875 C4 30 4 30 1.75 29.73828125 C1.1725 29.49464844 0.595 29.25101563 0 29 C0.51776621 24.89552608 2.64627444 23.04300477 5.5625 20.25 C6.38878906 19.45078125 7.21507812 18.6515625 8.06640625 17.828125 C8.70449219 17.22484375 9.34257812 16.6215625 10 16 C8.15601035 11.65206652 5.11695899 9.13146441 1.6796875 6 C-0 4 -0 4 0 0 Z " fill="#000000" transform="translate(0,0)"/>
</svg>
